<svg width="0" height="0" class="hidden">
  <symbol xmlns="http://www.w3.org/2000/svg" viewBox="0 -960 960 960" id="expand">
    <path d="M480-362q-8 0-15-2.5t-13-8.5L268-557q-11-11-11-28t11-28q11-11 28-11t28 11l156 156 156-156q11-11 28-11t28 11q11 11 11 28t-11 28L508-373q-6 6-13 8.5t-15 2.5Z"></path>
  </symbol>
  <symbol xmlns="http://www.w3.org/2000/svg" viewBox="0 -960 960 960" id="download">
    <path d="M480-337q-8 0-15-2.5t-13-8.5L308-492q-12-12-11.5-28t11.5-28q12-12 28.5-12.5T365-549l75 75v-286q0-17 11.5-28.5T480-800q17 0 28.5 11.5T520-760v286l75-75q12-12 28.5-11.5T652-548q11 12 11.5 28T652-492L508-348q-6 6-13 8.5t-15 2.5ZM240-160q-33 0-56.5-23.5T160-240v-80q0-17 11.5-28.5T200-360q17 0 28.5 11.5T240-320v80h480v-80q0-17 11.5-28.5T760-360q17 0 28.5 11.5T800-320v80q0 33-23.5 56.5T720-160H240Z"></path>
  </symbol>
  <symbol xmlns="http://www.w3.org/2000/svg" viewBox="0 -960 960 960" id="add">
    <path d="M440-440H240q-17 0-28.5-11.5T200-480q0-17 11.5-28.5T240-520h200v-200q0-17 11.5-28.5T480-760q17 0 28.5 11.5T520-720v200h200q17 0 28.5 11.5T760-480q0 17-11.5 28.5T720-440H520v200q0 17-11.5 28.5T480-200q-17 0-28.5-11.5T440-240v-200Z"></path>
  </symbol>
  <symbol xmlns="http://www.w3.org/2000/svg" viewBox="0 -960 960 960" id="menu">
    <path d="M160-240q-17 0-28.5-11.5T120-280q0-17 11.5-28.5T160-320h640q17 0 28.5 11.5T840-280q0 17-11.5 28.5T800-240H160Zm0-200q-17 0-28.5-11.5T120-480q0-17 11.5-28.5T160-520h640q17 0 28.5 11.5T840-480q0 17-11.5 28.5T800-440H160Zm0-200q-17 0-28.5-11.5T120-680q0-17 11.5-28.5T160-720h640q17 0 28.5 11.5T840-680q0 17-11.5 28.5T800-640H160Z"></path>
  </symbol>
  <symbol xmlns="http://www.w3.org/2000/svg" viewBox="0 -960 960 960" id="close">
    <path d="M480-424 284-228q-11 11-28 11t-28-11q-11-11-11-28t11-28l196-196-196-196q-11-11-11-28t11-28q11-11 28-11t28 11l196 196 196-196q11-11 28-11t28 11q11 11 11 28t-11 28L536-480l196 196q11 11 11 28t-11 28q-11 11-28 11t-28-11L480-424Z"></path>
  </symbol>
</svg>